<svg height='100px' width='100px'  fill="#ef9b11" xmlns="http://www.w3.org/2000/svg" xmlns:xlink="http://www.w3.org/1999/xlink" version="1.1" x="0px" y="0px" viewBox="0 0 159.129 200.509" style="enable-background:new 0 0 159.129 200.509;" xml:space="preserve"><g><path d="M73.648,200.509c6.828,0,12.365-5.533,12.365-12.363v-98l5.518-25.473c2.666,2.007,5.748,4.184,9.211,6.376   c12.144,7.638,28.845,15.622,47.682,15.681c1.037,0,2.062-0.027,3.076-0.074c4.414-0.204,7.825-3.948,7.621-8.362   c-0.206-4.412-3.949-7.824-8.361-7.62c-0.799,0.037-1.578,0.056-2.336,0.056c-14.076,0.059-28.437-6.398-39.127-13.202   c-5.342-3.379-9.76-6.785-12.799-9.316c-1.521-1.266-2.697-2.313-3.477-3.026c-0.389-0.357-0.68-0.631-0.865-0.806   c-0.093-0.089-0.158-0.15-0.197-0.19c-0.033-0.031-0.033-0.033-0.033-0.031c-0.531-0.525-1.121-0.954-1.744-1.3   c-0.037-0.022-0.074-0.043-0.111-0.065c-0.046-0.025-0.09-0.05-0.137-0.073c-1.585-0.904-3.466-1.435-5.49-1.435h-2.448   c-3.426,9.402-12.455,16.135-23.03,16.135c-10.571,0-19.6-6.733-23.025-16.135h-2.445c-1.35,0-2.635,0.239-3.813,0.662   c-0.07,0.018-0.141,0.029-0.211,0.05l-0.002-0.002c-0.227,0.074-6.409,1.843-13.025,4.945c-3.326,1.577-6.764,3.438-9.857,5.991   c-1.543,1.293-3.031,2.773-4.297,4.727c-0.34,0.525-0.662,1.102-0.954,1.717C0.553,61.017-0.001,62.96,0,65.108   c-0.004,1.317,0.214,2.684,0.634,3.962l0,0H0.632c0.992,3.008,2.912,5.344,5.111,7.197c3.346,2.783,7.543,4.854,13.207,6.887   c5.664,2.01,12.815,3.891,21.961,5.705c0.525,0.104,1.049,0.154,1.564,0.154c3.738,0,7.082-2.637,7.838-6.445   c0.859-4.334-1.959-8.543-6.293-9.402c-11.486-2.268-19.207-4.635-23.693-6.67c-1.309-0.586-2.324-1.141-3.075-1.611   c0.41-0.321,0.891-0.665,1.436-1c0.125-0.081,0.266-0.162,0.396-0.243c1.836-1.135,4.148-2.259,6.398-3.219l1.389,6.414   c3.975,1.294,9.603,2.8,17.535,4.365c2.621,0.52,4.883,2.029,6.369,4.248c1.484,2.221,2.018,4.887,1.5,7.506   c-0.93,4.67-5.051,8.059-9.801,8.059c-0.65,0-1.309-0.066-1.955-0.195c-3.175-0.629-6.117-1.272-8.871-1.928l0.271,1.254v98   c0,6.83,5.537,12.363,12.363,12.363c6.828,0,12.365-5.533,12.365-12.363V97.874h4.635v90.271   C61.284,194.976,66.821,200.509,73.648,200.509z M58.968,62.332c1.932,0,3.5,1.567,3.5,3.5c0,1.934-1.568,3.5-3.5,3.5   c-1.934,0-3.5-1.566-3.5-3.5C55.468,63.899,57.034,62.332,58.968,62.332z M58.968,83.081c-1.934,0-3.5-1.566-3.5-3.5   c0-1.932,1.566-3.5,3.5-3.5c1.932,0,3.5,1.568,3.5,3.5C62.468,81.515,60.899,83.081,58.968,83.081z"></path><path d="M58.966,55.419c12.428,0,22.5-10.073,22.5-22.5c0-2.749-0.494-5.382-1.396-7.817c-2.778,1.55-11.677,6.064-21.104,6.064   c-9.428,0-18.325-4.515-21.101-6.064c-0.903,2.435-1.399,5.068-1.399,7.817C36.466,45.346,46.54,55.419,58.966,55.419z"></path><path d="M39.634,23.832c0,0,8.332,4.834,19.332,4.834S78.3,23.832,78.3,23.832V6.518C75.105,8.271,67.651,9.5,58.966,9.5   c-8.683,0-16.135-1.229-19.332-2.982V23.832z"></path><ellipse cx="58.966" cy="4" rx="19.585" ry="4"></ellipse></g></svg>