<svg height='100px' width='100px'  fill="#ef9b11" xmlns="http://www.w3.org/2000/svg" xmlns:xlink="http://www.w3.org/1999/xlink" version="1.1" x="0px" y="0px" viewBox="0 0 100 100" enable-background="new 0 0 100 100" xml:space="preserve"><path d="M65,66.4c0.9-0.8,0.9-2.3,0-3.1l-0.6-0.5c-0.7-0.6-0.9-1.5-0.5-2.3l0.3-0.7c0.5-1.1-0.1-2.4-1.3-2.8l-0.8-0.2  c-0.8-0.2-1.4-1-1.5-1.9l0-0.8c-0.1-1.1-1-2-2-2c-0.1,0-0.2,0-0.4,0l-0.8,0.1c-0.1,0-0.2,0-0.4,0c-0.7,0-1.4-0.4-1.8-1.1l-0.4-0.7  c-0.4-0.7-1.1-1.1-1.8-1.1c-0.4,0-0.8,0.1-1.2,0.4l-0.7,0.5c-0.4,0.3-0.8,0.4-1.2,0.4c-0.4,0-0.8-0.1-1.2-0.4l-0.7-0.5  c-0.4-0.3-0.8-0.4-1.2-0.4c-0.7,0-1.4,0.4-1.8,1.1l-0.4,0.7c-0.4,0.7-1.1,1.1-1.8,1.1c-0.1,0-0.2,0-0.4,0l-0.8-0.1  c-0.1,0-0.2,0-0.4,0c-1.1,0-2,0.8-2,1.9l0,0.8c0,0.9-0.6,1.6-1.5,1.9l-0.8,0.2c-1.2,0.3-1.8,1.6-1.3,2.8l0.3,0.7  c0.3,0.8,0.1,1.8-0.5,2.3L35,63.3c-0.9,0.8-0.9,2.3,0,3.1l0.6,0.5c0.7,0.6,0.9,1.5,0.5,2.3L35.8,70c-0.5,1.1,0.1,2.4,1.3,2.8  l0.8,0.2c0.8,0.2,1.4,1,1.5,1.9l0,0.8c0.1,1.1,1,2,2,2c0.1,0,0.2,0,0.4,0l0.8-0.1c0.1,0,0.2,0,0.4,0c0.7,0,1.4,0.4,1.8,1.1l0.4,0.7  c0.4,0.7,1.1,1.1,1.8,1.1c0.4,0,0.8-0.1,1.2-0.4l0.7-0.5c0.4-0.3,0.8-0.4,1.2-0.4c0.4,0,0.8,0.1,1.2,0.4l0.7,0.5  c0.4,0.3,0.8,0.4,1.2,0.4c0.7,0,1.4-0.4,1.8-1.1l0.4-0.7c0.4-0.7,1.1-1.1,1.8-1.1c0.1,0,0.2,0,0.4,0l0.8,0.1c0.1,0,0.2,0,0.4,0  c1.1,0,2-0.8,2-1.9l0-0.8c0-0.9,0.6-1.6,1.5-1.9l0.8-0.2c1.2-0.3,1.8-1.6,1.3-2.8l-0.3-0.7c-0.3-0.8-0.1-1.8,0.5-2.3L65,66.4z   M50.8,67.7l-2.5,2.5l-2.5-2.5l-2.4-2.4l2.5-2.5l2.4,2.4l5.7-5.7l2.5,2.5L50.8,67.7z M67.3,40.4h-15h-4.5h-15v-4.9  c0-1,0.4-2,1.2-2.6c4.4-3.6,9.2-6,10.1-6.5c0.1-0.1,0.2-0.2,0.2-0.3v-3.4c-0.5-0.9-0.9-1.8-1-2.7c-0.4,0-0.9-0.6-1.4-2.4  c-0.7-2.6,0-3,0.7-2.9c-0.1-0.4-0.2-0.7-0.3-1.1h0c-0.2-1.2-0.3-2.3,0-3.4c0.3-1.4,1.1-2.6,2-3.5c0.5-0.6,1.2-1.1,1.8-1.5  c0.5-0.4,1.1-0.7,1.8-0.9l0,0c0.5-0.2,1-0.3,1.6-0.3c1.8-0.2,3.1,0.3,4.1,0.9c1.4,0.8,2,1.8,2,1.8s3.3,0.2,2.2,6.9  c-0.1,0.4-0.2,0.7-0.3,1.1c0.7-0.1,1.4,0.3,0.7,2.9c-0.5,1.9-1,2.4-1.4,2.4c-0.1,0.8-0.5,1.8-1,2.7v3.4c0,0.1,0.1,0.2,0.2,0.3  c1,0.5,5.7,2.9,10.1,6.5c0.8,0.6,1.2,1.6,1.2,2.6V40.4z M98,88.5c0.8,0.6,1.2,1.6,1.2,2.6V96h-15h-4.5h-15v-4.9c0-1,0.4-2,1.2-2.6  c4.4-3.6,9.2-6,10.1-6.5c0.1-0.1,0.2-0.2,0.2-0.3v-3.4c-0.5-0.9-0.9-1.8-1-2.7c-0.4,0-0.9-0.6-1.4-2.4c-0.7-2.6,0-3,0.7-2.9  c-0.1-0.4-0.2-0.7-0.3-1.1h0c-0.2-1.2-0.3-2.3,0-3.4c0.3-1.4,1.1-2.6,2-3.5c0.5-0.6,1.2-1.1,1.8-1.5c0.5-0.4,1.1-0.7,1.8-0.9l0,0  c0.5-0.2,1-0.3,1.6-0.3c1.8-0.2,3.1,0.3,4.1,0.9c1.4,0.8,2,1.8,2,1.8s3.3,0.2,2.2,6.9c-0.1,0.4-0.2,0.7-0.3,1.1  c0.7-0.1,1.4,0.3,0.7,2.9c-0.5,1.9-1,2.4-1.4,2.4c-0.1,0.8-0.5,1.8-1,2.7v3.4c0,0.1,0.1,0.2,0.2,0.3C88.9,82.5,93.6,84.9,98,88.5z   M15.7,96h-15v-4.9c0-1,0.4-2,1.2-2.6c4.4-3.6,9.2-6,10.1-6.5c0.1-0.1,0.2-0.2,0.2-0.3v-3.4c-0.5-0.9-0.9-1.8-1-2.7  c-0.4,0-0.9-0.6-1.4-2.4c-0.7-2.6,0-3,0.7-2.9c-0.1-0.4-0.2-0.7-0.3-1.1h0c-0.2-1.2-0.3-2.3,0-3.4c0.3-1.4,1.1-2.6,2-3.5  c0.5-0.6,1.2-1.1,1.8-1.5c0.5-0.4,1.1-0.7,1.8-0.9l0,0c0.5-0.2,1-0.3,1.6-0.3c1.8-0.2,3.1,0.3,4.1,0.9c1.4,0.8,2,1.8,2,1.8  s3.3,0.2,2.2,6.9c-0.1,0.4-0.2,0.7-0.3,1.1c0.7-0.1,1.4,0.3,0.7,2.9c-0.5,1.9-1,2.4-1.4,2.4c-0.1,0.8-0.5,1.8-1,2.7v3.4  c0,0.1,0.1,0.2,0.2,0.3c1,0.5,5.7,2.9,10.1,6.5c0.8,0.6,1.2,1.6,1.2,2.6V96h-15H15.7z"></path></svg>