<svg height='100px' width='100px'  fill="#ef9b11" xmlns="http://www.w3.org/2000/svg" viewBox="0 0 512 512" x="0px" y="0px"><g><circle cx="192" cy="104" r="8"></circle><path d="M312,128h40a8,8,0,0,0,8-8V80a8,8,0,0,0-8-8H312a8,8,0,0,0-8,8v40A8,8,0,0,0,312,128Zm8-40h24v24H320Z"></path><path d="M312,200h40a8,8,0,0,0,8-8V152a8,8,0,0,0-8-8H312a8,8,0,0,0-8,8v40A8,8,0,0,0,312,200Zm8-40h24v24H320Z"></path><path d="M312,272h40a8,8,0,0,0,8-8V224a8,8,0,0,0-8-8H312a8,8,0,0,0-8,8v40A8,8,0,0,0,312,272Zm8-40h24v24H320Z"></path><rect x="192" y="384" width="16" height="16"></rect><rect x="160" y="384" width="16" height="16"></rect><rect x="128" y="384" width="16" height="16"></rect><path d="M240,304H96a48,48,0,0,0,0,96h16V384H96a32,32,0,0,1,0-64H240a48,48,0,0,0,0-96H184V208a8,8,0,0,0-8-8H112a8,8,0,0,0-8,8v16H96a32,32,0,0,1,0-64H240a48.012,48.012,0,0,0,48-48V64H272v48a32.013,32.013,0,0,1-32,32H211.314l7.213-7.213A45.7,45.7,0,0,0,232,104.26V104a40,40,0,0,0-80,0v.26a45.7,45.7,0,0,0,13.473,32.527L172.686,144H96a48,48,0,0,0,0,96h8v24a8,8,0,0,0,8,8h11.719l13.625,20.438a8,8,0,0,0,13.312,0L164.281,272H176a8,8,0,0,0,8-8V240h56a32,32,0,0,1,0,64ZM168,104a24,24,0,0,1,48,0v.26a29.8,29.8,0,0,1-8.787,21.213L192,140.687l-15.213-15.214A29.8,29.8,0,0,1,168,104.26Zm0,152h-8a8,8,0,0,0-6.656,3.562L144,273.578l-9.344-14.016A8,8,0,0,0,128,256h-8V216h48Z"></path><path d="M464,16H440a8,8,0,0,0-8,8v8H56A40.045,40.045,0,0,0,16,72V456a40.045,40.045,0,0,0,40,40H88a8,8,0,0,0,8-8V432H247.189c-.05.1-.1.206-.143.311-.04.088-.075.178-.111.268-.085.215-.161.432-.227.653-.017.056-.042.108-.058.164l-14.358,51.709a8,8,0,0,0,10.621,9.592L292.9,475.158c.034-.013.065-.033.1-.047a7.913,7.913,0,0,0,.718-.335c.047-.025.1-.046.142-.071a8.039,8.039,0,0,0,.815-.517c.042-.03.079-.065.12-.1.206-.155.407-.32.6-.5.085-.078.163-.161.245-.243s.193-.182.284-.283L333.007,432H464a32.036,32.036,0,0,0,32-32V48a31.467,31.467,0,0,0-1.836-10.663A32.036,32.036,0,0,0,464,16ZM448,32h16a16.027,16.027,0,0,1,15.093,10.708A15.612,15.612,0,0,1,480,48V372.3a31.8,31.8,0,0,0-16-4.3H448V299a31.717,31.717,0,0,0,0-15.313ZM289.407,456.408l-5.937-5.361L385.343,338.238l5.937,5.361ZM367.53,322.152l5.938,5.362L271.6,440.323l-5.938-5.361ZM402,331.725l-23.75-21.447L388.978,298.4l23.75,21.447Zm30.934-40.4a15.961,15.961,0,0,1-4.126,10.716l-5.361,5.938-10.644-9.612L399.7,286.529l5.361-5.937a16,16,0,0,1,27.876,10.73ZM32,72A24.028,24.028,0,0,1,56,48H432V88H384a8,8,0,0,0,0,16h48v64H384a8,8,0,0,0,0,16h48v56H384a8,8,0,0,0,0,16h48v7.085a31.987,31.987,0,0,0-38.812,6.783l-10.723,11.875-21.447,23.748-.009.01L277.6,397.868A41.472,41.472,0,0,0,246.8,384H224v16h22.8a25.39,25.39,0,0,1,19.977,9.849L261.223,416H56a39.788,39.788,0,0,0-24,8.022V72ZM80,480H56a24,24,0,0,1,0-48H80Zm171.989-6.03,6.615-23.82,10.738,9.7,5.672,5.122ZM464,416H347.456l61.061-67.615,21.438-23.74.009-.008L432,322.382V376a8,8,0,0,0,8,8h24a16,16,0,0,1,0,32Z"></path></g></svg>